<svg xmlns="http://www.w3.org/2000/svg" viewBox="0 0 813.4 95.55"><defs><style>.cls-1{fill:#f4f4f4;}</style></defs><g id="Layer_2" data-name="Layer 2"><g id="Layer_1-2" data-name="Layer 1"><path class="cls-1" d="M73.71,17.42a39.93,39.93,0,1,0,2.47,58.5l6.37,4.55a47.82,47.82,0,1,1-2.86-68.12Zm-9.49,7.41A28.29,28.29,0,1,0,66.3,69l6.63,4.68A36.48,36.48,0,0,1,47.71,83.85a36.08,36.08,0,1,1,22.75-64Z"/><path class="cls-1" d="M119,2h7.8V93.6H119Zm11.7,0h7.8V93.6h-7.8Z"/><path class="cls-1" d="M183.43,2h7.8V93.6h-7.8Zm19.5,21.19V93.6h-7.8V2H199l50.7,91.65h-8.58ZM203.84,2h9.1l36.79,68V2h7.8V93.6h-3.12Zm57.59,0h7.8V93.6h-7.8Z"/><path class="cls-1" d="M315.38,2h62.4v7.8h-62.4Zm0,11.7h62.4v7.8h-42.9v15.6h40.95v7.8H334.88v3.9h40.95v7.8H334.88V74.1h44.85v7.8H334.88v3.9h44.85v7.8H327.08V21.45h-3.9V93.6h-7.8Z"/><path class="cls-1" d="M423.28,2h62.4v7.8h-62.4Zm0,11.7h62.4v7.8h-42.9v15.6h39v7.8h-39v3.9h39v7.8h-39V93.6H435V21.45h-3.9V93.6h-7.8Z"/><path class="cls-1" d="M526.36,2h7.8V93.6h-7.8Zm11.7,0h7.8V74.1h39v7.8h-39v3.9h39v7.8H538.06Z"/><path class="cls-1" d="M622.17,2h62.4v7.8h-62.4Zm0,11.7h62.4v7.8h-42.9v15.6h41v7.8h-41v3.9h41v7.8h-41V74.1h44.85v7.8H641.67v3.9h44.85v7.8H633.87V21.45H630V93.6h-7.8Z"/><path class="cls-1" d="M789.09,93.6,766,62,745.15,93.6h-9.62l25.61-38.22-2.47-3.51L730.46,93.6h-9.62l33-48.36L722.27,2h9.62L798.71,93.6ZM737,2h9.62l20.54,28.21L787.66,2h9.62L771.93,36.66l2.47,3.51L802.35,2H812L779.21,46.8,813.4,93.6h-9.62Z"/></g></g></svg>