<?xml version="1.0" standalone="no"?>
<!DOCTYPE svg PUBLIC "-//W3C//DTD SVG 20010904//EN"
 "http://www.w3.org/TR/2001/REC-SVG-20010904/DTD/svg10.dtd">
<svg version="1.0" xmlns="http://www.w3.org/2000/svg"
 width="1601.000000pt" height="1601.000000pt" viewBox="0 0 1601.000000 1601.000000"
 preserveAspectRatio="xMidYMid meet">
<metadata>
Created by potrace 1.14, written by Peter Selinger 2001-2017
</metadata>
<g transform="translate(0.000000,1601.000000) scale(0.100000,-0.100000)"
fill="#000000" stroke="none">
<path d="M1520 16003 c-663 -47 -1221 -477 -1430 -1101 -22 -65 -49 -172 -60
-238 -20 -119 -20 -141 -18 -6704 l3 -6585 27 -105 c37 -150 62 -220 123 -347
91 -191 192 -331 343 -475 260 -248 585 -399 944 -437 134 -15 12986 -15
13113 -1 207 24 381 76 564 170 445 227 752 635 853 1133 l23 112 0 6585 0
6585 -23 105 c-49 224 -135 426 -255 605 -85 125 -303 342 -427 424 -233 155
-493 246 -772 271 -102 9 -12882 12 -13008 3z m7830 -2128 c1056 -105 2004
-458 2860 -1066 145 -103 401 -306 488 -385 l52 -49 -364 -308 c-201 -169
-368 -308 -371 -308 -3 0 -63 45 -133 100 -669 530 -1454 880 -2278 1016 -308
50 -426 59 -799 59 -375 0 -510 -9 -810 -60 -1547 -258 -2880 -1240 -3590
-2644 -642 -1272 -705 -2764 -173 -4085 254 -628 642 -1207 1128 -1678 769
-747 1708 -1205 2780 -1357 268 -38 776 -52 1045 -30 632 54 1218 212 1770
479 460 222 907 531 1256 868 l105 102 392 -280 392 -280 -47 -55 c-114 -132
-471 -446 -716 -630 -861 -645 -1858 -1034 -2952 -1149 -330 -35 -901 -30
-1260 11 -2100 239 -3914 1593 -4743 3539 -484 1138 -596 2426 -316 3649 330
1443 1224 2742 2454 3566 878 588 1837 914 2910 990 179 12 736 4 920 -15z
m-363 -1425 c710 -33 1353 -216 1968 -559 238 -133 669 -432 648 -451 -6 -6
-695 -549 -749 -592 -8 -6 -58 22 -146 79 -858 563 -1931 718 -2918 422 -553
-165 -1044 -461 -1460 -878 -567 -568 -903 -1262 -1006 -2076 -25 -194 -25
-595 -1 -795 142 -1157 815 -2142 1837 -2687 552 -295 1249 -442 1867 -394
753 58 1442 330 1979 782 l92 77 404 -284 c221 -157 404 -289 406 -293 5 -14
-240 -224 -403 -346 -657 -494 -1415 -790 -2250 -881 -195 -21 -657 -24 -850
-6 -899 87 -1694 409 -2405 976 -166 133 -519 486 -654 656 -675 847 -1008
1832 -983 2900 16 666 156 1249 441 1841 302 626 773 1200 1331 1621 708 534
1568 846 2445 887 91 4 174 9 185 9 11 1 111 -3 222 -8z"/>
</g>
</svg>
