<?xml version="1.0" standalone="no"?>
<!DOCTYPE svg PUBLIC "-//W3C//DTD SVG 20010904//EN"
 "http://www.w3.org/TR/2001/REC-SVG-20010904/DTD/svg10.dtd">
<svg version="1.0" xmlns="http://www.w3.org/2000/svg"
 width="1601.000000pt" height="1601.000000pt" viewBox="0 0 1601.000000 1601.000000"
 preserveAspectRatio="xMidYMid meet">
<metadata>
Created by potrace 1.14, written by Peter Selinger 2001-2017
</metadata>
<g transform="translate(0.000000,1601.000000) scale(0.100000,-0.100000)"
fill="#000000" stroke="none">
<path d="M1557 16004 c-1 -1 -41 -4 -88 -7 -47 -4 -92 -8 -100 -11 -8 -3 -32
-8 -54 -11 -145 -21 -370 -107 -530 -203 -170 -101 -359 -277 -478 -443 -105
-146 -221 -397 -252 -544 -17 -80 -34 -176 -40 -235 -9 -78 -9 -13036 -1
-13100 73 -543 337 -953 791 -1225 174 -105 430 -192 623 -212 96 -10 13063
-10 13153 0 480 53 923 334 1186 752 101 160 191 398 219 575 3 25 9 56 12 70
4 14 7 2968 9 6565 2 6937 4 6585 -42 6787 -130 575 -595 1048 -1170 1192 -55
14 -120 27 -145 31 -25 3 -63 8 -85 12 -31 5 -13002 12 -13008 7z"/>
</g>
</svg>
